<svg width="102" height="32" viewBox="0 0 102 32" fill="none" xmlns="http://www.w3.org/2000/svg">
<g clip-path="url(#clip0_1_516)">
<path d="M20.1001 5.82957C22.5271 7.90207 24.8883 9.18841 25.3172 9.40262L25.6744 9.58148L26.6769 7.97329L26.2812 7.79496C25.6739 7.47311 20.4209 4.57647 17.6693 0.218853L17.5269 0.00463867H16.2036V1.54107L16.2754 1.64659C17.2409 3.07803 18.5278 4.50735 20.1001 5.82957Z" fill="white"/>
<path d="M16.1326 1.64818L16.2039 1.54265V0.00463867H14.8838L14.7408 0.218853C11.9871 4.57858 6.73413 7.47311 6.12526 7.79496L5.73376 7.97171L6.73624 9.5799L7.09397 9.40104C7.52293 9.18682 9.88139 7.90048 12.3111 5.82799C13.8813 4.50735 15.1676 3.07803 16.1326 1.64818Z" fill="white"/>
<path d="M10.3894 10.3143C7.6088 13.1107 4.38979 14.8835 3.91387 15.1357L3.50549 15.3209L4.54491 16.994L4.91424 16.8083C5.35955 16.5856 7.81035 15.2492 10.335 13.0954C11.3431 12.2517 12.276 11.3218 13.123 10.3164L10.3894 10.3143Z" fill="white"/>
<path d="M22.0199 10.3143C24.8005 13.1107 28.0195 14.8835 28.4954 15.1357L28.9038 15.3209L27.8644 16.994L27.495 16.8083C27.0492 16.5856 24.5989 15.2492 22.0737 13.0954C21.0657 12.2515 20.1329 11.3217 19.2858 10.3164L22.0199 10.3143Z" fill="white"/>
<path d="M31.8427 24.7289C31.257 24.4187 26.9485 22.0465 23.6767 18.35H20.7684C21.8131 19.7551 23.1216 21.1464 24.6697 22.448C27.4893 24.8556 30.2255 26.3456 30.7231 26.5967L31.1378 26.8041L32.2985 24.9384L31.8427 24.7289Z" fill="white"/>
<path d="M0.56585 24.7289C1.15204 24.4187 5.46059 22.0465 8.73184 18.35H11.6406C10.5954 19.7551 9.28742 21.1464 7.73938 22.448C4.91978 24.8556 2.18301 26.3456 1.68546 26.5967L1.27075 26.802L0.109985 24.9363L0.56585 24.7289Z" fill="white"/>
<path d="M19.93 7.20297H12.4241C11.288 8.04717 10.5677 8.72094 9.75989 9.19843H18.3291L22.6496 9.21637C21.8423 8.73888 21.0666 8.04769 19.93 7.20297Z" fill="white"/>
<path d="M22.1663 14.8202H10.2511C8.96417 15.7768 8.14788 16.5403 7.23291 17.0811H16.9424H25.1787C24.2616 16.5413 23.4506 15.7768 22.1663 14.8202Z" fill="white"/>
<path d="M25.1143 25.2518L22.0881 22.2259C22.0881 22.2259 20.3658 21.7463 16.1746 21.7463C12.0172 21.7463 10.3561 22.2396 10.3561 22.2396L7.29565 25.2518C7.29565 25.2518 11.5022 23.8531 16.1746 23.8531C21.4607 23.8531 25.1143 25.2518 25.1143 25.2518Z" fill="white"/>
<path d="M19.1706 25.627C18.5153 25.5615 17.8188 25.5135 17.0849 25.4914C17.2221 26.5091 17.7181 27.9907 18.1533 29.1615C17.5033 29.0856 16.8493 29.0472 16.1948 29.0465C15.5397 29.0485 14.8852 29.0886 14.2347 29.1668C14.6732 27.996 15.1675 26.5123 15.3063 25.4929C14.5877 25.5183 13.886 25.5737 13.2159 25.6481C12.9621 26.7946 12.2334 28.7774 11.6858 30.0801L10.9001 31.9516L12.8703 31.4619C13.9613 31.2155 15.0758 31.0874 16.1943 31.0799C17.3086 31.0781 18.4194 31.2048 19.5046 31.4577L21.5095 31.9932L20.7049 30.0796C20.1541 28.7695 19.4217 26.7698 19.1706 25.627Z" fill="white"/>
</g>
<g clip-path="url(#clip1_1_516)">
<path d="M56.4828 10.6644C56.3527 9.97039 56.0925 9.36308 55.7455 8.84254C55.3551 8.27862 54.7479 7.84483 53.9672 7.54118C53.2299 7.23753 52.1889 7.10739 50.9311 7.10739H42.2999V24.8926H44.9023V18.4726H50.8444C52.1022 18.4726 53.1431 18.3425 53.8804 18.0388C54.6612 17.7352 55.2684 17.3014 55.7021 16.7375C56.0925 16.2169 56.3527 15.5662 56.4828 14.8722C56.5696 14.2215 56.6563 13.5274 56.6563 12.79C56.6563 12.0092 56.5696 11.3151 56.4828 10.6644ZM44.9457 9.40646H50.454C51.3648 9.40646 52.1022 9.49321 52.5793 9.62335C53.013 9.75349 53.36 9.92701 53.5768 10.1873C53.7937 10.4476 53.9238 10.7512 53.9672 11.185C54.0106 11.6621 54.0539 12.1827 54.0539 12.79C54.0539 13.3973 54.0106 13.9612 53.9672 14.395C53.9238 14.7854 53.7503 15.0891 53.5768 15.3493C53.36 15.6096 53.013 15.7831 52.5793 15.9566C52.1022 16.0868 51.3648 16.1735 50.454 16.1735H44.9457V9.40646Z" fill="white"/>
<path d="M79.4703 15.9133C78.6028 14.6119 77.5185 13.3105 76.2607 12.0092C74.5258 10.2307 72.7909 8.88593 71.6632 8.06174V10.9681C74.2656 13.0503 78.1257 16.7808 79.4703 21.1621V15.9133Z" fill="white"/>
<path d="M83.1571 7.10739H80.6848V24.8926H83.1571V7.10739Z" fill="white"/>
<path d="M70.4922 7.10739H67.9332V24.8926H70.4922V7.10739Z" fill="white"/>
<path d="M62.9019 7.10739H60.2996V24.8926H62.9019V7.10739Z" fill="white"/>
<path d="M90.7473 13.8745C89.7497 12.9202 88.8822 11.9658 88.1449 10.9681V24.8927H101.07V22.5936H90.7906V13.8745H90.7473Z" fill="white"/>
<path d="M92.9592 9.40597H101.069V7.10739H91.181C91.7015 7.93141 92.3086 8.66869 92.9592 9.40597Z" fill="white"/>
<path d="M100.333 16.5639C99.5953 16.1735 93.2195 12.6599 89.8798 7.36767L89.7064 7.10739H88.1016V8.97267L88.1883 9.10281C89.3594 10.838 90.9208 12.5731 92.8292 14.1781C95.7785 16.6941 98.6411 18.2557 99.1616 18.516L99.5953 18.7329L100.81 16.7808L100.333 16.5639Z" fill="white"/>
</g>
<defs>
<clipPath id="clip0_1_516">
<rect width="32.19" height="32" fill="white" transform="translate(0.109985)"/>
</clipPath>
<clipPath id="clip1_1_516">
<rect width="58.77" height="17.91" fill="white" transform="translate(42.2999 7.04501)"/>
</clipPath>
</defs>
</svg>
